# xmcd
#
# Track frame offsets: 
#        150
#        21055
#        41177
#        60285
#        79385
#        96287
#        118052
#        140567
#        155907
#        171960
#
# Disc length: 2546 seconds
#
# Revision: 3
# Processed by: cddbd v1.5.2PL0 Copyright (c) Steve Scherf et al.
# Submitted via: ExactAudioCopy v1.0b4
#
DISCID=8a09f00a
DTITLE=Deborah Coleman - I Can't Lose
DYEAR=1997
DGENRE=Blues
TTITLE0=I Can't Lose
TTITLE1=My Heart Bleeds Blue
TTITLE2=Roll With Me
TTITLE3=The Man Is Mine
TTITLE4=Brick
TTITLE5=Fine and Mellow
TTITLE6=Feelin' Alright
TTITLE7=Something's Wrong
TTITLE8=I Found You
TTITLE9=My Love Belongs To You
EXTD=YEAR: 1997 ID3G: 0
EXTT0=
EXTT1=
EXTT2=
EXTT3=
EXTT4=
EXTT5=
EXTT6=
EXTT7=
EXTT8=
EXTT9=
PLAYORDER=
